<?xml version="1.0" encoding="UTF-8"?>
<svg width="70px" height="70px" viewBox="0 0 70 70" version="1.1" xmlns="http://www.w3.org/2000/svg" xmlns:xlink="http://www.w3.org/1999/xlink">
    <title>形状结合</title>
    <defs>
        <linearGradient x1="42.3518513%" y1="0%" x2="42.3518513%" y2="300.632027%" id="linearGradient-1">
            <stop stop-color="#00FFFF" offset="0%"></stop>
            <stop stop-color="#00CFFB" stop-opacity="0.57738904" offset="100%"></stop>
        </linearGradient>
    </defs>
    <g id="页面-1" stroke="none" stroke-width="1" fill="none" fill-rule="evenodd">
        <g id="宁夏大屏备份-12" transform="translate(-3467.000000, -845.000000)" fill="url(#linearGradient-1)">
            <g id="编组-3" transform="translate(3467.000000, 834.000000)">
                <path d="M35,11 C54.3299662,11 70,26.6700338 70,46 C70,65.3299662 54.3299662,81 35,81 C15.6700338,81 0,65.3299662 0,46 C0,26.6700338 15.6700338,11 35,11 Z M35.3309091,30.6 C33.3624243,30.6 31.8860606,31.5935484 30.9018182,33.3322581 C30.409697,33.0838709 29.9175758,32.8354839 29.4254545,32.8354839 C26.7187879,32.8354839 24.2581818,34.5741935 23.52,37.0580645 C20.8133334,37.5548387 18.5987879,40.0387097 18.5987879,43.2677419 C16.3842424,44.2612903 15.4,46.4967742 15.4,48.9806451 C15.4,52.4580645 18.3527273,55.4387097 22.0436363,55.6870968 L31.3939394,55.6870968 C31.64,55.9354839 33.6084848,59.1645161 24.0121212,59.1645161 C23.0278788,59.1645161 23.2739394,61.4 23.2739394,61.4 L48.3721212,61.4 C48.3721212,61.4 48.6181818,59.1645161 47.6339394,59.1645161 C37.7915152,59.4129033 40.0060606,55.9354839 40.2521212,55.6870968 L49.8484849,55.6870968 C53.2933333,55.1903226 56,52.4580645 56,48.7322581 C56,46.2483871 54.5236364,44.2612903 52.8012121,43.0193549 L52.8012121,42.7709677 C52.8012121,39.7903226 50.5866667,37.3064516 47.6339394,36.8096774 C46.8957576,34.3258064 44.4351515,32.5870967 41.7284849,32.5870968 C40.990303,32.5870968 40.2521212,32.8354839 39.76,32.8354839 C38.7757576,31.3451613 37.2993939,30.6 35.3309091,30.6 Z" id="形状结合"></path>
            </g>
        </g>
    </g>
</svg>