<?xml version="1.0" standalone="no"?><!DOCTYPE svg PUBLIC "-//W3C//DTD SVG 1.1//EN" "http://www.w3.org/Graphics/SVG/1.1/DTD/svg11.dtd"><svg t="1609499702213" class="icon" viewBox="0 0 1024 1024" version="1.1" xmlns="http://www.w3.org/2000/svg" p-id="21023" xmlns:xlink="http://www.w3.org/1999/xlink" width="32" height="32"><defs><style type="text/css"></style></defs><path d="M883.2 243.2l-102.4 0C768 108.8 652.8 0 512 0 371.2 0 256 108.8 243.2 243.2L140.8 243.2c-70.4 0-128 57.6-128 128L12.8 896c0 70.4 57.6 128 128 128l742.4 0c70.4 0 128-57.6 128-128L1011.2 371.2C1011.2 300.8 953.6 243.2 883.2 243.2zM512 25.6c128 0 230.4 96 243.2 217.6L268.8 243.2C281.6 121.6 384 25.6 512 25.6zM883.2 972.8 140.8 972.8c-25.6 0-51.2-12.8-64-38.4 19.2 12.8 38.4 19.2 64 19.2l742.4 0c25.6 0 44.8-6.4 64-19.2C934.4 960 908.8 972.8 883.2 972.8zM960 825.6c0 44.8-32 76.8-76.8 76.8L140.8 902.4c-44.8 0-76.8-32-76.8-76.8L64 371.2c0-44.8 32-76.8 76.8-76.8l96 0 0 70.4C211.2 371.2 192 396.8 192 422.4c0 32 25.6 57.6 57.6 57.6 32 0 57.6-25.6 57.6-57.6 0-25.6-19.2-51.2-44.8-57.6L262.4 294.4l492.8 0 0 70.4c-25.6 6.4-44.8 25.6-44.8 57.6 0 32 25.6 57.6 57.6 57.6 32 0 57.6-25.6 57.6-57.6 0-25.6-19.2-51.2-44.8-57.6L780.8 294.4l96 0c44.8 0 76.8 32 76.8 76.8L953.6 825.6z" p-id="21024" fill="#8a8a8a"></path></svg>