<?xml version="1.0" standalone="no"?><!DOCTYPE svg PUBLIC "-//W3C//DTD SVG 1.1//EN" "http://www.w3.org/Graphics/SVG/1.1/DTD/svg11.dtd"><svg t="1609497590214" class="icon" viewBox="0 0 1025 1024" version="1.1" xmlns="http://www.w3.org/2000/svg" p-id="11367" xmlns:xlink="http://www.w3.org/1999/xlink" width="32.03125" height="32"><defs><style type="text/css"></style></defs><path d="M858.84069 954.640049c-9.271599 5.952858-35.13588 4.325723-45.213883-3.130444L511.754395 670.523874l-303.953917 280.644954c-9.599073 7.254566-39.338801 7.953517-47.434564 0.752166-18.444956-10.772861-31.666706-30.604463-31.666706-55.223321L128.699207 128.284749c0-35.321108 28.636551-63.959705 63.959705-63.959705l639.085376 0c35.322131 0 63.959705 28.638598 63.959705 63.959705l0 768.413947C895.702971 923.565866 879.953533 944.727829 858.84069 954.640049zM831.743266 160.264601c0-17.675393-14.333114-31.979853-31.979853-31.979853l-575.125671 0c-17.645715 0-31.979853 14.30446-31.979853 31.979853l0 63.959705 639.085376 0L831.743266 160.264601zM192.65789 288.185035l0 567.817891 290.678952-268.578571c8.129534-7.637301 18.273032-10.71146 28.019468-9.539718 9.943943-1.141041 20.284948 1.876834 28.539332 9.45785l291.848647 271.338561L831.744289 288.185035 192.65789 288.185035z" p-id="11368" fill="#bfbfbf"></path></svg>